<svg width="37" height="27" viewBox="0 0 37 27" fill="none" xmlns="http://www.w3.org/2000/svg">
<path fill-rule="evenodd" clip-rule="evenodd" d="M2.08705 1.96856C1.80482 2.12001 1.44196 2.46734 1.28068 2.74048C0.99596 3.22254 0.988043 3.48322 1.00549 11.6752C1.02162 19.2028 1.04962 20.1638 1.26514 20.5806C1.65191 21.3287 2.13925 21.5547 3.54204 21.637L4.7925 21.7103L4.90334 22.3635C5.06447 23.3125 5.7147 24.2683 6.55113 24.7854C7.1864 25.178 7.39782 25.229 8.39141 25.229C9.38501 25.229 9.59643 25.178 10.2317 24.7854C11.0677 24.2684 11.7179 23.3131 11.8801 22.3635L11.9915 21.7103H19.0942H26.1968L26.3083 22.3635C26.5833 23.974 27.9244 25.1705 29.5723 25.2755C31.4814 25.397 33.0498 24.1461 33.3073 22.2967C33.387 21.7242 33.4049 21.7084 34.0613 21.6329C34.4312 21.5904 34.9081 21.4413 35.1213 21.3017C35.9013 20.7906 35.9391 20.557 35.9853 15.9747C36.023 12.2351 35.9992 11.6893 35.7822 11.3008C35.5173 10.8263 32.4522 7.1028 31.5944 6.2133C30.8816 5.47408 30.2431 5.36295 26.7109 5.36295H23.7858V4.32932C23.7858 3.20949 23.6068 2.72171 22.9816 2.13746L22.5894 1.77093L12.5948 1.73208C3.05529 1.69498 2.57689 1.70583 2.08705 1.96856ZM22.2529 3.23046L22.6129 3.59025V9.16829V14.7462H12.4233H2.23367V9.12958C2.23367 3.34086 2.24935 3.17621 2.82012 2.97228C2.94107 2.92902 7.28199 2.88841 12.4665 2.88211L21.8932 2.87053L22.2529 3.23046ZM30.7816 7.15896C31.5233 7.93469 34.6351 11.7182 34.6351 11.8444C34.6351 11.9082 32.194 11.9605 29.2105 11.9605H23.7858V9.3215V6.68246H27.0558H30.3259L30.7816 7.15896ZM34.7818 14.0809V14.8818L33.4256 14.9239C32.1357 14.964 32.0671 14.9827 32.0215 15.304C31.9338 15.9226 32.2217 16.0657 33.5534 16.0657H34.7818V17.9717C34.7818 19.6822 34.7517 19.9077 34.4885 20.1709C34.3079 20.3515 33.9999 20.4641 33.686 20.4641C33.2791 20.4641 33.134 20.3829 32.9654 20.0609C32.6984 19.5513 31.9087 18.8035 31.3364 18.5185C29.7434 17.7254 27.6995 18.363 26.7117 19.9612L26.4009 20.4641H25.0933H23.7858V16.8721V13.2801H29.2838H34.7818V14.0809ZM26.376 14.5507C26.3222 14.6044 26.2782 15.0332 26.2782 15.5037V16.3589H26.938H27.5977V15.4059V14.453H27.0358C26.7265 14.453 26.4297 14.4969 26.376 14.5507ZM22.6129 18.2649V20.4641H17.2246H11.8362L11.3234 19.7727C10.6745 18.898 10.0446 18.4744 9.06715 18.2557C7.66553 17.9419 6.1214 18.6421 5.30624 19.9612C4.99747 20.4609 4.98838 20.4641 3.90769 20.4641C2.62483 20.4641 2.23367 20.2088 2.23367 19.3718V18.866L3.06144 18.822C3.98892 18.7728 4.34592 18.4791 4.05035 18.0083C3.93452 17.8237 3.65713 17.7394 3.06144 17.7078L2.23367 17.6638V16.8647V16.0657H12.4233H22.6129V18.2649ZM9.31933 19.6378C9.5825 19.7477 9.97366 20.0465 10.1884 20.3018C11.2405 21.5521 10.5959 23.5471 9.00103 23.9765C7.77549 24.3065 6.55069 23.6242 6.1865 22.4088C5.62101 20.5213 7.48593 18.8717 9.31933 19.6378ZM30.9713 19.7677C31.6978 20.2621 32.0303 20.8007 32.096 21.5895C32.2087 22.9402 31.1779 24.0392 29.7981 24.0392C27.8807 24.0392 26.7817 21.7497 28.0025 20.2987C28.7532 19.4066 30.0896 19.1676 30.9713 19.7677Z" fill="#E30611"/>
<path d="M1.91374 1.64559L1.91381 1.64556C2.24838 1.4661 2.58046 1.40203 3.93905 1.37145C5.3185 1.34039 7.82946 1.34701 12.5962 1.36555L22.5908 1.4044L22.7346 1.40496L22.8397 1.50314L23.2319 1.86967C23.571 2.18664 23.8134 2.50072 23.9622 2.9063C24.1075 3.30218 24.1523 3.75555 24.1523 4.32932V4.99641H26.7109C28.4683 4.99641 29.5451 5.02312 30.2728 5.14982C30.6439 5.21444 30.9404 5.30738 31.1993 5.44488C31.4594 5.58309 31.6633 5.7567 31.8582 5.95886C32.2989 6.4158 33.2888 7.58051 34.1936 8.67974C34.648 9.23174 35.0846 9.77168 35.4248 10.2042C35.7539 10.6225 36.0184 10.9718 36.1023 11.1221C36.2554 11.3963 36.3168 11.7045 36.3455 12.3652C36.3743 13.0297 36.3706 14.1123 36.3518 15.9783C36.3289 18.2533 36.3086 19.4938 36.1903 20.2236C36.1297 20.5973 36.0381 20.8777 35.8807 21.1061C35.7235 21.3342 35.5223 21.4771 35.3222 21.6083L35.3221 21.6083C35.1734 21.7057 34.9631 21.7899 34.7594 21.8535C34.5498 21.919 34.3152 21.9726 34.1032 21.997C33.9338 22.0165 33.83 22.0297 33.7569 22.0459C33.7418 22.0492 33.73 22.0523 33.7211 22.0549C33.7206 22.0566 33.7201 22.0584 33.7195 22.0604C33.7042 22.1153 33.6912 22.1976 33.6703 22.3473C33.3854 24.394 31.642 25.7745 29.549 25.6413L29.5723 25.2755L29.549 25.6413C27.7341 25.5257 26.251 24.2057 25.947 22.4252L25.9469 22.4251L25.8875 22.0768H19.0942H12.3008L12.2414 22.4251L12.2414 22.4252C12.0611 23.4808 11.3478 24.5261 10.4245 25.0971L10.4244 25.0971C10.1 25.2977 9.84742 25.4347 9.53184 25.5107C9.2273 25.5842 8.88458 25.5955 8.39141 25.5955C7.89825 25.5955 7.55553 25.5842 7.25099 25.5107C6.9354 25.4347 6.68285 25.2977 6.35843 25.0971L6.35839 25.0971C5.43459 24.526 4.72116 23.4802 4.54198 22.4248L4.54198 22.4248L4.47993 22.0591L3.52059 22.0029C2.81423 21.9615 2.28133 21.8826 1.86833 21.691C1.42973 21.4875 1.15913 21.1737 0.939557 20.749C0.857421 20.5901 0.807879 20.4036 0.772196 20.1172C0.736732 19.8326 0.712195 19.4235 0.694166 18.8051C0.65803 17.5657 0.647017 15.4376 0.638958 11.676L1.00549 11.6752L0.638958 11.676C0.630243 7.584 0.627787 5.46252 0.663414 4.30535C0.681143 3.72949 0.708667 3.37147 0.754628 3.1216C0.804569 2.85009 0.87715 2.70297 0.965061 2.55412L1.91374 1.64559ZM1.91374 1.64559C1.73409 1.742 1.54609 1.88996 1.38505 2.04411M1.91374 1.64559L1.38505 2.04411M1.38505 2.04411C1.22416 2.19813 1.06834 2.37923 0.965087 2.55408L1.38505 2.04411Z" stroke="#E30611" stroke-width="0.733065"/>
</svg>
