<svg width="29" height="29" viewBox="0 0 29 29" fill="none" xmlns="http://www.w3.org/2000/svg">
<path d="M28.0487 9.36529C27.8673 8.91183 27.3685 8.63978 26.8697 8.82116C26.4162 9.00254 26.1441 9.50134 26.3255 10.0001C27.5045 13.1744 27.4138 16.6206 26.0081 19.7042C24.6024 22.7877 22.1084 25.1457 18.9342 26.3246C15.7599 27.5036 12.3137 27.413 9.23015 26.0072C8.14185 25.5084 7.14423 24.8736 6.23732 24.1027C6.96285 24.1027 7.77908 24.1027 8.59531 23.9214C9.09411 23.8307 9.41153 23.3772 9.32084 22.8784C9.23014 22.3796 8.77668 22.0622 8.27788 22.1529C6.64543 22.4249 5.05833 22.1982 4.15141 22.0168C3.83399 21.8808 3.47122 21.9261 3.19915 22.1075C3.10846 22.1982 3.01776 22.2889 2.97242 22.4249V22.4703C2.97242 22.5156 2.92708 22.561 2.92708 22.6063C2.88173 22.7877 2.88173 22.9691 2.92708 23.1504C3.15381 23.9213 3.69795 26.1433 3.47122 27.5036C3.38053 28.0024 3.7433 28.4559 4.2421 28.5466C4.28745 28.5466 4.3328 28.5466 4.37814 28.5466C4.8316 28.5466 5.19437 28.2292 5.28506 27.7757C5.37575 27.0956 5.37575 26.37 5.28506 25.6445C6.28267 26.4607 7.37096 27.1409 8.50461 27.685C10.4091 28.5466 12.4497 29.0001 14.4903 29.0001C16.2134 29.0001 17.9365 28.6827 19.6143 28.0478C23.242 26.6874 26.0988 23.9667 27.7313 20.475C29.273 16.938 29.409 12.993 28.0487 9.36529Z" fill="#E30611"/>
<path d="M2.92705 9.2746C5.82919 2.88084 13.3566 0.0693975 19.705 2.92619C20.748 3.42499 21.7456 4.01449 22.6071 4.74002C21.8816 4.74002 21.0654 4.74003 20.2945 4.92141C19.7957 5.01211 19.4783 5.46553 19.569 5.96434C19.6597 6.46314 20.1131 6.7806 20.6119 6.68991C22.3804 6.37249 24.0582 6.64452 24.9198 6.87125H24.9651C25.0105 6.87125 25.0558 6.87125 25.1012 6.87125H25.1465C25.1465 6.87125 25.1465 6.87125 25.1919 6.87125C25.2372 6.87125 25.2825 6.87125 25.2825 6.87125C25.3279 6.87125 25.3279 6.87125 25.3732 6.87125C25.4186 6.87125 25.4639 6.87126 25.4639 6.82592C25.4639 6.82592 25.5093 6.82593 25.5093 6.78058C25.5546 6.78058 25.5546 6.73525 25.6 6.73525C25.6453 6.73525 25.6453 6.68991 25.6907 6.68991C25.6907 6.68991 25.6907 6.68991 25.736 6.68991L25.7814 6.64452L25.8267 6.59919C25.8721 6.55384 25.9174 6.46314 25.9627 6.41779C26.0081 6.37245 26.0081 6.2818 26.0081 6.23645V6.19106C26.0081 6.14572 26.0081 6.10042 26.0081 6.00973V5.96434C26.0081 5.87364 26.0081 5.8283 25.9627 5.73761C25.736 5.01207 25.1919 2.74479 25.4186 1.38442C25.5093 0.885612 25.1465 0.432186 24.6477 0.341495C24.1489 0.250803 23.6954 0.613548 23.6048 1.11235C23.5141 1.79254 23.5141 2.51805 23.6048 3.24358C22.6525 2.47271 21.6095 1.8379 20.4759 1.29375C13.1752 -2.0165 4.5595 1.2484 1.2946 8.54908C-0.292505 12.0861 -0.428544 16.0311 0.931831 19.6588C1.06787 20.0216 1.43064 20.2483 1.79341 20.2483C1.8841 20.2483 2.02013 20.2483 2.11083 20.2029C2.56428 20.0216 2.83636 19.5228 2.65497 19.024C1.43064 15.8044 1.52133 12.3581 2.92705 9.2746Z" fill="#E30611"/>
<path d="M11.4067 24.9643C12.4044 25.2364 13.402 25.4177 14.4449 25.4177C18.6621 25.4177 22.6525 22.9691 24.421 18.9786C25.6453 16.3032 25.736 13.3557 24.6931 10.635C24.557 10.3176 24.2396 10.1815 23.9222 10.2722C23.6048 10.4082 23.4687 10.7257 23.5594 11.0431C24.4663 13.4918 24.3757 16.1219 23.3327 18.4799C21.3375 22.8784 16.3948 25.1457 11.7695 23.8306C11.4521 23.7399 11.0893 23.9213 10.9986 24.2388C10.9079 24.5562 11.0893 24.8736 11.4067 24.9643Z" fill="#E30611"/>
<path d="M17.0296 5.1028C17.347 5.19349 17.6645 5.01209 17.7552 4.69467C17.8459 4.37725 17.6645 4.05984 17.347 3.96915C12.1323 2.56343 6.73612 5.10276 4.51418 10.0001C3.28984 12.6755 3.19914 15.623 4.2421 18.3438C4.33279 18.5705 4.55952 18.7519 4.8316 18.7519C4.92229 18.7519 4.96763 18.7519 5.05832 18.7066C5.37575 18.5705 5.51178 18.2531 5.42109 17.9356C4.51418 15.487 4.60487 12.8569 5.64782 10.4989C7.59769 6.10036 12.4044 3.83311 17.0296 5.1028Z" fill="#E30611"/>
</svg>
