<svg width="29" height="29" viewBox="0 0 29 29" fill="none" xmlns="http://www.w3.org/2000/svg">
<path fill-rule="evenodd" clip-rule="evenodd" d="M5.43766 6.10352e-05C2.43507 6.10352e-05 0 2.43458 0 5.43772V23.5624C0 26.565 2.43452 29.0001 5.43766 29.0001H23.5623C26.5649 29.0001 29 26.5655 29 23.5624V5.43772C29 2.43513 26.5655 6.10352e-05 23.5623 6.10352e-05H5.43766ZM1.8125 23.5624V5.43771C1.8125 3.43581 3.43587 1.81255 5.43766 1.81255H23.5623C25.5642 1.81255 27.1875 3.43592 27.1875 5.43771V23.5624C27.1875 25.5643 25.5641 27.1875 23.5623 27.1875H5.43766C3.43576 27.1875 1.8125 25.5642 1.8125 23.5624ZM3.62502 8.15811C3.62502 5.65458 5.65168 3.62507 8.15806 3.62507H20.842C23.3455 3.62507 25.375 5.65173 25.375 8.15811V20.842C25.375 23.3456 23.3484 25.3751 20.842 25.3751H8.15806C5.65453 25.3751 3.62502 23.3484 3.62502 20.842V8.15811ZM4.53125 20.842V8.15809C4.53125 6.15399 6.15324 4.5313 8.15804 4.5313H20.842C22.8461 4.5313 24.4687 6.15329 24.4687 8.15809V20.842C24.4687 22.8461 22.8468 24.4688 20.842 24.4688H8.15804C6.15394 24.4688 4.53125 22.8468 4.53125 20.842ZM14.5 22.6563C9.99545 22.6563 6.34377 19.0046 6.34377 14.5001C6.34377 9.9955 9.99545 6.34382 14.5 6.34382C19.0046 6.34382 22.6563 9.9955 22.6563 14.5001C22.6563 19.0046 19.0046 22.6563 14.5 22.6563ZM21.75 14.5C21.75 18.5041 18.5041 21.75 14.5 21.75C10.4959 21.75 7.25 18.5041 7.25 14.5C7.25 10.496 10.4959 7.25005 14.5 7.25005C18.5041 7.25005 21.75 10.496 21.75 14.5ZM11.7812 16.3125C10.7802 16.3125 9.96875 15.5011 9.96875 14.5C9.96875 13.499 10.7802 12.6875 11.7812 12.6875C12.7823 12.6875 13.5937 13.499 13.5937 14.5C13.5937 15.5011 12.7823 16.3125 11.7812 16.3125ZM12.6875 14.5001C12.6875 15.0006 12.2818 15.4063 11.7813 15.4063C11.2808 15.4063 10.875 15.0006 10.875 14.5001C10.875 13.9996 11.2808 13.5938 11.7813 13.5938C12.2818 13.5938 12.6875 13.9996 12.6875 14.5001ZM17.2187 16.3125C16.2177 16.3125 15.4062 15.5011 15.4062 14.5C15.4062 13.499 16.2177 12.6875 17.2187 12.6875C18.2198 12.6875 19.0312 13.499 19.0312 14.5C19.0312 15.5011 18.2198 16.3125 17.2187 16.3125ZM18.125 14.5001C18.125 15.0006 17.7193 15.4063 17.2188 15.4063C16.7182 15.4063 16.3125 15.0006 16.3125 14.5001C16.3125 13.9996 16.7182 13.5938 17.2188 13.5938C17.7193 13.5938 18.125 13.9996 18.125 14.5001Z" fill="#E30611"/>
</svg>
