<svg width="25" height="29" viewBox="0 0 25 29" fill="none" xmlns="http://www.w3.org/2000/svg">
<path d="M11.903 29.0001C11.8164 29.0001 11.8597 29 11.7731 28.9568C11.297 28.8269 0 25.3209 0 18.006V5.62693C0 5.15081 0.2597 4.76126 0.73582 4.76126C2.9 4.76126 4.58806 2.98663 4.63134 0.865733C4.63134 0.389613 4.97761 6.10352e-05 5.45373 6.10352e-05H18.309C18.7851 6.10352e-05 19.1746 0.389613 19.1746 0.865733C19.2179 3.02991 21.1224 4.76126 23.2433 4.76126C23.7194 4.76126 24.2388 5.15081 24.2388 5.62693V18.006C24.2388 24.412 12.8119 28.7836 12.2925 28.9568C12.206 29 11.9895 29.0001 11.903 29.0001ZM1.73134 6.40603V18.006C1.73134 23.503 10.4313 26.6627 12.1194 27.2254C15.2791 25.9702 22.5075 22.2045 22.5075 18.006V6.40603C19.9104 6.01647 17.9194 4.28512 17.5298 1.6881H6.27612C5.84328 4.3284 3.89552 6.05976 1.73134 6.40603Z" fill="#E30611"/>
<path d="M7.61791 23.6762C7.53134 23.6762 7.48806 23.6762 7.44478 23.6329C5.8 22.8105 4.50149 21.5986 3.72239 20.2135C3.59254 19.9971 3.6791 19.7374 3.89552 19.6075C4.11194 19.4777 4.37164 19.5642 4.50149 19.7806C5.19403 21.0359 6.36269 22.118 7.83433 22.8538C8.05074 22.9404 8.13731 23.2001 8.00746 23.4165C7.92089 23.5896 7.79104 23.6762 7.61791 23.6762Z" fill="#E30611"/>
<path d="M3.33279 18.612C3.15966 18.612 2.98652 18.4822 2.89995 18.309C2.81339 18.0493 2.7701 17.8762 2.7701 17.8762C2.72682 17.6598 2.89995 17.4001 3.11637 17.3568C3.33279 17.3135 3.59249 17.4866 3.63578 17.703C3.63578 17.703 3.67906 17.8329 3.72234 18.0493C3.80891 18.2657 3.63578 18.5254 3.41936 18.5687C3.41936 18.612 3.37607 18.612 3.33279 18.612Z" fill="#E30611"/>
<path d="M12.1195 28.1344C11.8598 28.1344 11.6866 27.9613 11.6866 27.7016V0.865758C11.6866 0.606057 11.8598 0.432922 12.1195 0.432922C12.3792 0.432922 12.5523 0.606057 12.5523 0.865758V27.7016C12.5523 27.918 12.3359 28.1344 12.1195 28.1344Z" fill="#E30611"/>
<path d="M23.1134 14.9329H0.605932C0.34623 14.9329 0.173096 14.7597 0.173096 14.5C0.173096 14.2403 0.34623 14.0672 0.605932 14.0672H23.1134C23.3731 14.0672 23.5462 14.2403 23.5462 14.5C23.5462 14.7165 23.3731 14.9329 23.1134 14.9329Z" fill="#E30611"/>
</svg>
