<svg width="30" height="29" viewBox="0 0 30 29" fill="none" xmlns="http://www.w3.org/2000/svg">
<path d="M12.6903 29.0001C11.7633 29.0001 10.9688 28.3821 10.0419 27.4993L1.52283 18.9803C-0.50761 16.9498 -0.50761 15.7139 1.52283 13.7276L14.9855 0.264917C15.1621 0.0883572 15.4269 6.10352e-05 15.6918 6.10352e-05L27.124 1.14772C27.1682 1.14772 27.2123 1.14772 27.2123 1.14772C27.6096 1.236 27.9186 1.5891 27.9186 1.98636L29.0221 13.3304C29.0662 13.5952 28.9338 13.86 28.7572 14.0366L15.3387 27.4552C14.4117 28.3821 13.6172 29.0001 12.6903 29.0001ZM15.9566 1.76566L2.80288 14.9194C1.47867 16.2436 1.47867 16.376 2.80288 17.7002L11.3219 26.2192C11.7633 26.6606 12.3371 27.1903 12.6903 27.1903C13.0434 27.1903 13.6613 26.6165 14.0586 26.2192L27.2123 13.0655L26.1971 2.78088L15.9566 1.76566Z" fill="#E30611"/>
<path d="M5.40719 17.7003C5.27477 17.7003 5.18648 17.6561 5.0982 17.5678C3.95056 16.4202 4.21539 15.7139 5.23062 14.6987L9.24737 10.682C9.42393 10.5054 9.68876 10.5054 9.86532 10.682C10.0419 10.8585 10.0419 11.1234 9.86532 11.3L5.84859 15.3167C5.05407 16.1112 5.00993 16.2436 5.71617 16.9499C5.89273 17.1264 5.89273 17.3913 5.71617 17.5678C5.67203 17.6561 5.53961 17.7003 5.40719 17.7003Z" fill="#E30611"/>
<path d="M10.4833 10.5936C10.3509 10.5936 10.2626 10.5495 10.1743 10.4612C9.99773 10.2847 9.99773 10.0198 10.1743 9.84326L10.5274 9.49015C10.704 9.31359 10.9688 9.31359 11.1454 9.49015C11.3219 9.66671 11.3219 9.93156 11.1454 10.1081L10.7923 10.4612C10.704 10.5495 10.5716 10.5936 10.4833 10.5936Z" fill="#E30611"/>
<path d="M20.9886 11.5648C18.9581 11.5648 17.325 9.93161 17.325 7.90117C17.325 5.87072 18.9581 4.23755 20.9886 4.23755C23.019 4.23755 24.6522 5.87072 24.6522 7.90117C24.6522 9.93161 23.019 11.5648 20.9886 11.5648ZM20.9886 6.00315C19.9292 6.00315 19.0906 6.8418 19.0906 7.90117C19.0906 8.96053 19.9292 9.79918 20.9886 9.79918C22.0479 9.79918 22.8866 8.96053 22.8866 7.90117C22.8866 6.8418 22.0038 6.00315 20.9886 6.00315Z" fill="#E30611"/>
</svg>
